<svg width="20" height="20" viewBox="0 0 20 20" fill="none" xmlns="http://www.w3.org/2000/svg">
<path fill-rule="evenodd" clip-rule="evenodd" d="M10 11.4143L13.5429 14.9572L14.9571 13.543L11.4142 10.0001L14.9571 6.45718L13.5429 5.04297L10 8.58586L6.45711 5.04297L5.04289 6.45718L8.58579 10.0001L5.04289 13.543L6.45711 14.9572L10 11.4143Z" fill="#242424"/>
<path d="M0 0V-2H-2V0H0ZM20 0H22V-2H20V0ZM20 20V22H22V20H20ZM0 20H-2V22H0V20ZM0 2H20V-2H0V2ZM18 0V20H22V0H18ZM20 18H0V22H20V18ZM2 20V0H-2V20H2Z" fill="#242424"/>
</svg>
